<svg width="259" height="244" viewBox="0 0 259 244" fill="none" xmlns="http://www.w3.org/2000/svg">
<path opacity="0.85" d="M254.734 242.508C251.017 246.787 237.746 240.644 234.089 238.603C230.452 236.561 229.154 232.538 225.477 234.167C221.781 235.796 212.481 233.696 212.481 233.696C212.481 233.696 200.448 235.875 188.455 235.403C176.461 234.932 137.748 234.481 137.748 234.481C137.748 234.481 131.063 235.737 123.061 234.638C115.078 233.559 48.721 231.105 39.6964 232.989C34.3289 234.108 29.5708 233.48 26.5823 232.773C24.3212 232.263 21.9618 232.42 19.7991 233.303C15.9258 234.893 9.65377 237.307 5.36758 238.092C3.77501 238.387 2.43803 238.485 1.61225 238.21C-1.74986 237.131 1.02241 228.671 2.43803 224.962C2.89024 223.784 3.14584 222.548 3.20482 221.272C3.40144 217.072 3.95196 207.102 5.053 201.959C6.44896 195.326 8.12018 168.692 8.23815 159.036C8.3168 149.36 6.21302 102.059 10.3419 91.7944C10.3419 91.7944 6.03607 59.7831 8.49375 51.1474C8.49375 51.1474 5.62318 40.804 7.01914 35.4852C7.84492 32.3057 7.82526 30.5589 7.35339 28.3999C7.0388 26.9279 6.48828 25.2596 5.83946 22.8259C4.67943 18.5277 3.18516 10.5592 2.83126 5.69176C2.67397 3.72908 2.71329 2.2767 3.04753 1.78603C3.04753 1.78603 2.73295 0.157011 3.83399 0.0785034C4.64011 -3.63588e-06 6.23268 0.804694 9.28021 3.76834C9.33919 3.82722 9.35885 3.84684 9.35885 3.84684C11.1284 5.574 12.4654 7.02638 13.5861 8.24324C16.2797 11.1676 17.5773 12.6396 19.917 12.8359C20.5855 12.8948 21.3523 12.8359 22.2568 12.6789C27.6047 11.7368 30.259 12.9733 30.259 12.9733C30.259 12.9733 42.9406 13.3266 49.2716 13.2088C50.8248 13.1696 55.111 13.2284 60.8128 13.3658C60.8128 13.3658 60.8128 13.3658 60.8325 13.3658C78.3115 13.7976 109.2 15.0734 115.786 17.3893C115.845 17.4089 115.904 17.4286 115.943 17.4286C115.943 17.4286 118.283 15.7995 125.617 17.5463C125.617 17.5463 151.688 13.1892 167.692 13.7191C183.697 14.249 198.05 13.7584 207.743 12.5219C212.167 11.9527 215.627 12.0901 218.045 12.4041C221.073 12.777 224.16 12.4041 226.932 11.148C231.159 9.26383 237.864 8.89092 243.133 8.9498C245.65 8.98906 247.891 8.18436 249.916 7.43854C249.936 7.43854 249.936 7.43854 249.936 7.43854C251.371 6.90862 252.669 6.39832 253.849 6.24131C256.444 5.88803 258.764 7.87033 258.902 10.4611C259.079 14.3275 259.118 19.7642 258.312 24.082C256.877 31.7169 254.871 33.0318 254.871 33.0318C254.871 33.0318 255.127 40.019 251.076 42.9826C251.076 42.9826 252.944 53.9932 249.228 57.6242C249.228 57.6242 252.354 75.3079 247.95 81.5885C247.95 81.5885 250.644 108.595 247.518 117.878C244.411 127.181 248.245 168.829 248.245 168.829C248.245 168.829 251.902 199.506 251.804 206.179C251.725 212.833 250.565 226.473 250.565 226.473C250.565 226.473 258.45 238.23 254.734 242.508Z" fill="url(#paint0_radial)"/>
<path opacity="0.31" d="M254.714 242.41C250.998 246.689 237.726 240.546 234.069 238.504C230.432 236.463 229.134 232.44 225.458 234.069C221.761 235.698 212.461 233.598 212.461 233.598C212.461 233.598 200.428 235.776 188.435 235.305C176.442 234.834 137.728 234.383 137.728 234.383C137.728 234.383 131.043 235.639 123.041 234.54C115.059 233.46 48.7013 231.007 39.6767 232.891C34.3091 234.01 29.551 233.382 26.5625 232.675C24.3014 232.165 21.9421 232.322 19.7793 233.205C15.906 234.795 9.634 237.209 5.34781 237.994C3.75523 238.289 2.41825 238.387 1.59247 238.112C-1.76963 237.032 1.00263 228.573 2.41825 224.864C2.87047 223.686 3.12606 222.45 3.18505 221.174C3.38166 216.974 3.93218 207.003 5.03322 201.861C6.42918 195.227 8.10041 168.594 8.21837 158.937C8.33634 149.281 6.21291 101.981 10.3418 91.7158C10.3418 91.7158 6.03596 59.7045 8.49364 51.0687C8.49364 51.0687 5.62307 40.7254 7.01903 35.4066C7.84481 32.227 7.82515 30.4803 7.35327 28.3213C7.03869 26.8493 6.48817 25.181 5.83934 22.7473C4.67932 18.449 3.18505 10.4609 2.83114 5.61313C2.67385 3.65046 2.71317 2.19808 3.04742 1.70741C3.04742 1.70741 2.73284 0.078384 3.83388 -0.000123106C4.63999 -0.0786302 6.23257 0.726068 9.28009 3.68971C9.33908 3.74859 9.35874 3.76822 9.35874 3.76822C11.1283 5.49537 12.4652 6.94775 13.5859 8.16461C16.2796 11.089 17.5772 12.561 19.9169 12.7573C20.5854 12.8162 21.3522 12.7573 22.2566 12.6003C27.6045 11.6582 30.2588 12.8947 30.2588 12.8947C30.2588 12.8947 42.9405 13.2479 49.2714 13.1302C50.8247 13.0909 55.1109 13.1498 60.8127 13.2872C60.8127 13.2872 60.8127 13.2872 60.8324 13.2872C78.3114 13.719 109.199 14.9947 115.786 17.3107C115.845 17.3303 115.904 17.3499 115.943 17.3499C115.943 17.3499 118.283 15.7209 125.617 17.4677C125.617 17.4677 151.688 13.1106 167.692 13.6405C183.697 14.1704 198.049 13.6797 207.743 12.4432C212.166 11.8741 215.627 12.0115 218.045 12.3255C221.073 12.6984 224.16 12.3255 226.932 11.0694C231.159 9.18521 237.864 8.8123 243.133 8.87118C245.65 8.91043 247.891 8.10573 249.916 7.35992C249.936 7.35992 249.936 7.35992 249.936 7.35992C251.371 6.82999 252.669 6.3197 253.849 6.16268C256.444 5.8094 258.764 7.7917 258.902 10.3824C259.079 14.2489 259.118 19.6855 258.312 24.0034C256.876 31.6382 254.871 32.9532 254.871 32.9532C254.871 32.9532 255.127 39.9404 251.076 42.904C251.076 42.904 252.944 53.9146 249.228 57.5456C249.228 57.5456 252.354 75.2293 247.95 81.5099C247.95 81.5099 250.644 108.516 247.518 117.8C244.411 127.103 248.245 168.751 248.245 168.751C248.245 168.751 251.902 199.428 251.804 206.101C251.725 212.754 250.565 226.395 250.565 226.395C250.565 226.395 258.449 238.151 254.714 242.41Z" fill="url(#paint1_radial)"/>
<defs>
<radialGradient id="paint0_radial" cx="0" cy="0" r="1" gradientUnits="userSpaceOnUse" gradientTransform="translate(130 129) rotate(-26.1357) scale(138.297 138.053)">
<stop offset="0.0989583" stop-color="white"/>
<stop offset="1" stop-color="#B9F9FF"/>
</radialGradient>
<radialGradient id="paint1_radial" cx="0" cy="0" r="1" gradientUnits="userSpaceOnUse" gradientTransform="translate(105.822 61.0146) scale(198.9 198.55)">
<stop stop-color="#F6F6F6"/>
<stop offset="0.1295" stop-color="white"/>
<stop offset="1" stop-color="#A6A6A6"/>
</radialGradient>
</defs>
</svg>
