<svg width="12" height="13" viewBox="0 0 12 13" fill="none" xmlns="http://www.w3.org/2000/svg">
<g clip-path="url(#clip0)">
<path d="M4.00968 10.4845C2.39623 10.3932 1.11154 9.05177 1.11154 7.41572C1.11154 5.72077 2.49037 4.34182 4.18518 4.34182C4.94317 4.34182 5.67101 4.61995 6.23465 5.12496C6.8856 5.7072 7.25905 6.54222 7.25905 7.4157C7.25905 8.14823 6.99628 8.85361 6.52744 9.40577C6.85996 9.62121 7.24171 9.74991 7.63956 9.77926C8.11837 9.08225 8.37059 8.26896 8.37059 7.4157C8.37059 6.50155 8.08118 5.63326 7.53371 4.90471C7.09868 4.3256 6.5197 3.86714 5.85931 3.57884C5.49329 3.41874 5.11058 3.31344 4.71638 3.26376C5.51317 2.67721 5.81786 2.18561 5.81786 1.75683C5.81786 1.2423 5.40076 0.825195 4.88622 0.825195C4.60664 0.825195 4.35603 0.948507 4.18527 1.14351C4.01451 0.948507 3.76388 0.825195 3.48432 0.825195C2.96979 0.825195 2.55269 1.2423 2.55269 1.75683C2.55269 2.18568 2.85747 2.67735 3.65454 3.26402C1.59646 3.5256 0 5.28773 0 7.41572C0 9.72342 1.87745 11.6009 4.18518 11.6009C4.50424 11.6009 4.81747 11.5655 5.12239 11.4957C4.70344 11.2187 4.32717 10.8777 4.00968 10.4845Z" fill="#8EA5BB"/>
<path d="M7.81479 3.23059C7.49571 3.23059 7.18248 3.26599 6.87756 3.33576C7.29651 3.61281 7.67277 3.95381 7.99029 4.34698C9.60374 4.43827 10.8884 5.77971 10.8884 7.41575C10.8884 9.11069 9.50961 10.4896 7.81482 10.4896C7.05685 10.4896 6.32899 10.2115 5.76532 9.7065C5.11438 9.12424 4.74093 8.28922 4.74093 7.41575C4.74093 6.68322 5.0037 5.97781 5.47254 5.42567C5.14002 5.21023 4.75828 5.08153 4.36042 5.05218C3.8816 5.74919 3.62939 6.56246 3.62939 7.41572C3.62939 8.32989 3.91878 9.19816 4.46629 9.92673C4.9013 10.5058 5.48028 10.9643 6.14067 11.2526C6.66917 11.4838 7.23235 11.6009 7.81482 11.6009C10.1225 11.6009 12 9.72345 12 7.41572C11.9999 5.10804 10.1225 3.23059 7.81479 3.23059Z" fill="#8EA5BB"/>
</g>
<defs>
<clipPath id="clip0">
<rect width="12" height="12" fill="white" transform="translate(0 0.213135)"/>
</clipPath>
</defs>
</svg>
