<svg width="399" height="363" viewBox="0 0 399 363" fill="none" xmlns="http://www.w3.org/2000/svg">
<g opacity="0.7">
<path d="M306.305 127.478H281.128V377.445H306.305V127.478Z" fill="#212353"/>
<path d="M224.578 31.8364C209.406 31.8364 197.114 44.1176 197.114 59.2753V127.478H224.578H366.074V31.8364H224.578Z" fill="#F05757"/>
<path d="M393.538 127.478H338.61V59.2753C338.61 44.1176 350.903 31.8364 366.074 31.8364C381.246 31.8364 393.538 44.1176 393.538 59.2753V127.478Z" fill="#EE3A4C"/>
<path d="M398.999 127.478H344.072V59.2753C344.072 44.1176 356.364 31.8364 371.536 31.8364C386.707 31.8364 398.999 44.1176 398.999 59.2753V127.478Z" fill="#D2373A"/>
<path d="M338.61 127.478H197.114V134.33H338.61V127.478Z" fill="#EE3A4C"/>
<path d="M393.539 127.478H338.611V134.33H393.539V127.478Z" fill="#D2373A"/>
<path d="M310.893 86.0796C316.793 86.0796 321.577 81.3008 321.577 75.4059C321.577 69.5109 316.793 64.7321 310.893 64.7321C304.993 64.7321 300.209 69.5109 300.209 75.4059C300.209 81.3008 304.993 86.0796 310.893 86.0796Z" fill="#F58A28"/>
<path d="M317.639 21.2895C317.639 18.2721 315.197 15.8328 312.177 15.8328H291.699C288.679 15.8328 286.237 18.2721 286.237 21.2895V29.9329C286.237 32.9503 288.679 35.3897 291.699 35.3897H304.147V75.4059C304.147 79.1283 307.167 82.1457 310.893 82.1457C314.618 82.1457 317.639 79.1283 317.639 75.4059V21.2895Z" fill="#FAB217"/>
<path d="M250.014 0.354502L171.752 49.7924L203.301 99.643L281.562 50.2051L250.014 0.354502Z" fill="white"/>
<path d="M171.756 49.7945L229.309 55.2935L250.026 0.373535L171.756 49.7945Z" fill="#DDE7FF"/>
<path d="M171.756 49.7945L226.669 50.006L250.026 0.373535L171.756 49.7945Z" fill="white"/>
<path d="M188.141 75.6953C187.125 76.3016 186.137 76.9361 185.163 77.5847" stroke="#4B57B5" stroke-width="1.6695" stroke-linecap="round" stroke-linejoin="round"/>
<path d="M172.49 87.5535C162.597 96.5071 153.889 106.983 144.772 116.811" stroke="#4B57B5" stroke-width="1.6695" stroke-linecap="round" stroke-linejoin="round" stroke-dasharray="5.72 5.72"/>
<path d="M139.211 122.649C119.749 142.417 97.1968 157.448 57.3277 147.944C39.4889 143.686 25.136 138.892 12.646 134.676" stroke="#4B57B5" stroke-width="1.6695" stroke-linecap="round" stroke-linejoin="round" stroke-dasharray="5.72 5.72"/>
<path d="M4.99707 132.124C3.86803 131.743 2.75311 131.377 1.63818 131.024" stroke="#4B57B5" stroke-width="1.6695" stroke-linecap="round" stroke-linejoin="round"/>
</g>
</svg>
