<svg width="36" height="37" viewBox="0 0 36 37" fill="none" xmlns="http://www.w3.org/2000/svg">
<circle cx="18" cy="18.4868" r="18" fill="#F2C94C"/>
<path d="M18.0018 14.3846C15.7316 14.3846 13.9005 16.2161 13.9005 18.4868C13.9005 20.7575 15.7316 22.589 18.0018 22.589C20.2719 22.589 22.1031 20.7575 22.1031 18.4868C22.1031 16.2161 20.2719 14.3846 18.0018 14.3846ZM18.0018 21.1538C16.5347 21.1538 15.3354 19.9578 15.3354 18.4868C15.3354 17.0159 16.5312 15.8199 18.0018 15.8199C19.4724 15.8199 20.6682 17.0159 20.6682 18.4868C20.6682 19.9578 19.4688 21.1538 18.0018 21.1538ZM23.2274 14.2168C23.2274 14.7488 22.7991 15.1736 22.2708 15.1736C21.739 15.1736 21.3142 14.7452 21.3142 14.2168C21.3142 13.6884 21.7426 13.26 22.2708 13.26C22.7991 13.26 23.2274 13.6884 23.2274 14.2168ZM25.9438 15.1879C25.8831 13.9062 25.5904 12.7709 24.6516 11.8355C23.7165 10.9001 22.5814 10.6073 21.2999 10.543C19.9793 10.4681 16.0207 10.4681 14.7001 10.543C13.4222 10.6037 12.2871 10.8965 11.3484 11.8319C10.4096 12.7673 10.1205 13.9026 10.0562 15.1844C9.98126 16.5053 9.98126 20.4647 10.0562 21.7857C10.1169 23.0674 10.4096 24.2028 11.3484 25.1382C12.2871 26.0736 13.4186 26.3663 14.7001 26.4306C16.0207 26.5056 19.9793 26.5056 21.2999 26.4306C22.5814 26.3699 23.7165 26.0771 24.6516 25.1382C25.5868 24.2028 25.8795 23.0674 25.9438 21.7857C26.0187 20.4647 26.0187 16.5089 25.9438 15.1879ZM24.2376 23.2031C23.9592 23.9029 23.4202 24.442 22.717 24.724C21.664 25.1417 19.1654 25.0453 18.0018 25.0453C16.8381 25.0453 14.336 25.1382 13.2866 24.724C12.5869 24.4455 12.048 23.9064 11.766 23.2031C11.3484 22.1499 11.4447 19.6507 11.4447 18.4868C11.4447 17.3229 11.3519 14.8202 11.766 13.7705C12.0444 13.0708 12.5834 12.5317 13.2866 12.2496C14.3395 11.8319 16.8381 11.9283 18.0018 11.9283C19.1654 11.9283 21.6676 11.8355 22.717 12.2496C23.4166 12.5281 23.9556 13.0672 24.2376 13.7705C24.6552 14.8238 24.5588 17.3229 24.5588 18.4868C24.5588 19.6507 24.6552 22.1534 24.2376 23.2031Z" fill="white"/>
</svg>
