<svg width="36" height="37" viewBox="0 0 36 37" fill="none" xmlns="http://www.w3.org/2000/svg">
<g clip-path="url(#clip0)">
<path d="M18 0.486816C8.06039 0.486816 0 8.54721 0 18.4868C0 28.4264 8.06039 36.4868 18 36.4868C27.9396 36.4868 36 28.4264 36 18.4868C36 8.54721 27.9396 0.486816 18 0.486816ZM12.7694 27.6978H8.38559V14.5089H12.7694V27.6978ZM10.5776 12.708H10.5491C9.078 12.708 8.12659 11.6953 8.12659 10.4297C8.12659 9.13553 9.10712 8.15088 10.6068 8.15088C12.1064 8.15088 13.0292 9.13553 13.0578 10.4297C13.0578 11.6953 12.1064 12.708 10.5776 12.708ZM28.5765 27.6978H24.1933V20.6421C24.1933 18.8689 23.5585 17.6595 21.9724 17.6595C20.7614 17.6595 20.0402 18.4753 19.7232 19.2627C19.6073 19.5445 19.579 19.9384 19.579 20.3325V27.6978H15.1955C15.1955 27.6978 15.2529 15.7463 15.1955 14.5089H19.579V16.3763C20.1616 15.4777 21.2039 14.1994 23.5297 14.1994C26.4139 14.1994 28.5765 16.0844 28.5765 20.1353V27.6978Z" fill="#F2C94C"/>
</g>
<defs>
<clipPath id="clip0">
<rect width="36" height="36" fill="white" transform="translate(0 0.486816)"/>
</clipPath>
</defs>
</svg>
