<svg width="36" height="37" viewBox="0 0 36 37" fill="none" xmlns="http://www.w3.org/2000/svg">
<circle cx="18" cy="18.4868" r="18" fill="#F2C94C"/>
<path fill-rule="evenodd" clip-rule="evenodd" d="M17.9095 15.146L17.8699 14.4944C17.7511 12.8055 18.7938 11.2629 20.4438 10.6645C21.051 10.4517 22.0805 10.4251 22.7537 10.6113C23.0176 10.6911 23.5193 10.957 23.8756 11.1964L24.5224 11.6353L25.2351 11.4092C25.6311 11.2895 26.1591 11.09 26.3966 10.957C26.621 10.8374 26.819 10.7708 26.819 10.8108C26.819 11.0368 26.3307 11.8081 25.9215 12.2337C25.3671 12.8321 25.5255 12.8853 26.6475 12.4863C27.3206 12.2603 27.3338 12.2603 27.2018 12.5129C27.1226 12.6459 26.7134 13.1114 26.2778 13.5369C25.5387 14.2683 25.4991 14.3481 25.4991 14.9598C25.4991 15.904 25.0503 17.8721 24.6015 18.9493C23.77 20.9706 21.9881 23.0583 20.2062 24.1089C17.6984 25.5851 14.3589 25.9574 11.5475 25.093C10.6103 24.8004 9 24.0557 9 23.9228C9 23.8829 9.48834 23.8297 10.0824 23.8164C11.3231 23.7898 12.5638 23.444 13.6197 22.8323L14.3326 22.4068L13.5141 22.1275C12.3526 21.7285 11.3099 20.811 11.0459 19.9466C10.9667 19.6674 10.9931 19.654 11.7322 19.654L12.4978 19.6408L11.851 19.3349C11.0855 18.9493 10.3859 18.2976 10.0427 17.6327C9.79192 17.154 9.47521 15.9438 9.5676 15.8508C9.59394 15.8109 9.87117 15.8906 10.188 15.997C11.0987 16.3295 11.2175 16.2497 10.6895 15.6912C9.69953 14.6806 9.39596 13.1778 9.87117 11.7549L10.0956 11.1166L10.9667 11.981C12.7486 13.7231 14.8473 14.7604 17.2496 15.0662L17.9095 15.146Z" fill="white"/>
</svg>
