<svg width="25" height="25" viewBox="0 0 25 25" fill="none" xmlns="http://www.w3.org/2000/svg">
<path d="M20.8424 9.74768H14.9421V3.84732C14.9421 2.41294 13.7792 1.25 12.3448 1.25C10.9104 1.25 9.74754 2.41294 9.74754 3.84732V9.74768H3.84729C2.41291 9.74768 1.25 10.9106 1.25 12.345C1.25 13.7794 2.41291 14.9423 3.84729 14.9423H9.74754V20.8427C9.74754 22.2771 10.9104 23.44 12.3448 23.44C13.7792 23.44 14.9421 22.2771 14.9421 20.8427V14.9423H20.8424C22.2767 14.9423 23.4397 13.7794 23.4397 12.345C23.4397 10.9106 22.2768 9.74768 20.8424 9.74768Z" fill="#F9F9FB" stroke="#546E7A" stroke-width="1.5"/>
</svg>
