<svg width="20" height="20" viewBox="0 0 20 20" fill="none" xmlns="http://www.w3.org/2000/svg">
<g clip-path="url(#clip0)">
<path d="M4.86554 2.63115C6.38918 1.55652 8.18364 0.988462 10.055 0.988462C15.0256 0.988462 19.0694 5.0323 19.0694 10.0029C19.0694 12.0695 18.3892 14.0133 17.1024 15.6243C16.9325 15.8369 16.9672 16.1471 17.1799 16.3169C17.2707 16.3894 17.3793 16.4247 17.4871 16.4247C17.6318 16.4247 17.7752 16.3613 17.8726 16.2394C19.3003 14.4519 20.055 12.2953 20.055 10.0029C20.055 4.48894 15.569 0.00292969 10.0551 0.00292969C7.97917 0.00292969 5.98826 0.633276 4.29755 1.82577C4.07515 1.98267 4.02199 2.29009 4.17889 2.51249C4.33566 2.73489 4.64321 2.78798 4.86554 2.63115Z" fill="#546E7A" stroke="#546E7A" stroke-width="0.2"/>
<path d="M10.055 20.0029C12.2712 20.0029 14.3707 19.2928 16.1265 17.9495C16.3426 17.7841 16.3838 17.4748 16.2183 17.2586C16.053 17.0425 15.7439 17.0013 15.5276 17.1667C13.9452 18.3774 12.0529 19.0173 10.055 19.0173C5.08448 19.0173 1.04065 14.9735 1.04065 10.003C1.04065 7.83682 1.8202 5.74296 3.23575 4.10725C3.41387 3.90147 3.3914 3.59024 3.18556 3.41212C2.97978 3.23407 2.66855 3.25654 2.49043 3.46231C0.919955 5.27714 0.0550537 7.59997 0.0550537 10.003C0.0551194 15.517 4.54106 20.0029 10.055 20.0029Z" fill="#546E7A" stroke="#546E7A" stroke-width="0.2"/>
<path d="M4.99565 12.4818L6.98445 14.4707C7.27058 14.7567 7.73614 14.7567 8.02234 14.4706L11.8113 10.6816L12.7982 11.6685C13.2456 12.1162 14.016 11.8223 14.05 11.189L14.3343 5.90441C14.3456 5.69659 14.2676 5.49298 14.1205 5.34587C13.9734 5.19877 13.77 5.12091 13.562 5.13188L8.27733 5.41617C7.64515 5.45014 7.34923 6.21951 7.79771 6.66806L8.78455 7.65497L4.99572 11.4439C4.70893 11.7305 4.70866 12.195 4.99565 12.4818ZM9.65931 8.17395C9.798 8.03532 9.87435 7.85103 9.87435 7.65491C9.87435 7.45885 9.798 7.27456 9.65937 7.13593L8.89348 6.37004L13.3351 6.13108L13.0961 10.5727L12.3302 9.80672C12.044 9.52065 11.5785 9.52065 11.2922 9.80678L7.5033 13.5958L5.87041 11.9629L9.65931 8.17395Z" fill="#546E7A" stroke="#546E7A" stroke-width="0.2"/>
</g>
<defs>
<clipPath id="clip0">
<rect width="20" height="20" fill="white"/>
</clipPath>
</defs>
</svg>
