<svg width="22" height="25" viewBox="0 0 22 25" fill="none" xmlns="http://www.w3.org/2000/svg">
<path d="M1.48177 0.357232C0.415537 1.10523 0.453055 2.81415 1.56537 4.16515L1.96895 4.65534L0.4215 5.74093L4.04883 10.1466L4.82255 9.60383L1.99747 6.17253L2.7712 5.62973L16.1879 21.9255L21.6511 24.8546L20.0565 19.2115L5.43401 1.45118C4.32169 0.100178 2.548 -0.390765 1.48177 0.357232ZM20.0269 22.8819L17.5449 21.5487L19.3047 20.3142L20.0269 22.8819ZM18.7758 19.1386L16.4547 20.7669L3.54985 5.09292L5.87103 3.46453L18.7758 19.1386ZM5.06858 2.48085L2.7474 4.10923L2.34381 3.61905C1.67446 2.80605 1.65203 1.78442 2.29366 1.3343C2.93528 0.884174 3.99564 1.17767 4.665 1.99066L5.06858 2.48085Z" fill="#546E7A"/>
</svg>
