<svg width="488" height="342" viewBox="0 0 488 342" fill="none" xmlns="http://www.w3.org/2000/svg">
<g clip-path="url(#clip0)">
<path d="M404.765 69.8646L391.359 42.4676L488 0L404.765 69.8646Z" fill="#D5E6DB"/>
<path d="M486.689 0.805176L404.765 69.8644L415.683 51.2219L486.689 0.805176Z" fill="#6F9AAC"/>
<path d="M488 0L415.684 51.2221L443.143 63.3844L488 0Z" fill="white"/>
<path d="M391.359 42.4676L365.613 34.2872L488 0L391.359 42.4676Z" fill="white"/>
<path d="M0 341.254C29.1501 341.165 67.9003 324.707 75.6831 293.104C78.8185 280.353 76.0331 266.684 65.9341 257.378C53.1762 245.618 39.1672 256.364 42.6155 272.784C48.2757 299.756 81.1794 319.726 106.181 320.009C120.63 320.173 134.192 313.231 139.39 299.055C147.68 276.431 133.06 261.889 121.71 243.948C107.596 221.637 72.9498 180.809 91.3082 153.211C104.2 133.845 135.89 134.994 154.792 142.935C177.016 152.272 194.883 171.757 204.922 193.427C219.832 225.626 213.412 263.791 242.272 290.107C254.717 301.456 269.657 301.732 282.482 290.614C294.153 280.495 293.765 265.879 294.711 251.778C295.985 232.733 295.985 213.531 294.92 194.478C293.899 176.201 281.268 159.013 261.763 157.648C256.698 157.29 251.046 159.885 249.593 164.755C248.498 168.423 250.048 172.48 252.595 175.336C271.154 196.163 295.404 188.11 311.312 168.796C325.634 151.414 334.437 128.021 329.484 105.457C327.89 98.186 324.628 87.2168 333.714 83.0633C340.388 80.0133 348.312 85.7105 352.051 90.8782C360.459 102.489 370.23 123.346 386.295 106.008C390.376 101.601 392.804 95.9415 394.949 90.3264C397.489 83.6822 399.976 76.2252 404.244 70.4609" stroke="#546E7A" stroke-width="2" stroke-miterlimit="10" stroke-dasharray="5 5"/>
</g>
<defs>
<clipPath id="clip0">
<rect width="488" height="342" fill="white"/>
</clipPath>
</defs>
</svg>
