<svg width="62" height="62" viewBox="0 0 62 62" fill="none" xmlns="http://www.w3.org/2000/svg">
<path d="M37.6429 26.9643H56.4643C58.6929 26.9643 60.5 28.7713 60.5 31C60.5 33.2286 58.6929 35.0357 56.4643 35.0357H37.6429C36.203 35.0357 35.0357 36.203 35.0357 37.6429V56.4643C35.0357 58.6929 33.2286 60.5 31 60.5C28.7713 60.5 26.9643 58.6929 26.9643 56.4643V37.6429C26.9643 36.203 25.797 35.0357 24.3571 35.0357H5.53571C3.30707 35.0357 1.5 33.2286 1.5 31C1.5 28.7713 3.30706 26.9643 5.53571 26.9643H24.3571C25.797 26.9643 26.9643 25.797 26.9643 24.3571V5.53571C26.9643 3.30706 28.7713 1.5 31 1.5C33.2286 1.5 35.0357 3.30707 35.0357 5.53571V24.3571C35.0357 25.797 36.203 26.9643 37.6429 26.9643Z" fill="#80C41C" stroke="#80C41C" stroke-width="3"/>
</svg>
