<svg width="45" height="45" viewBox="0 0 45 45" fill="none" xmlns="http://www.w3.org/2000/svg">
<g clip-path="url(#clip0)">
<path d="M22.5 45C34.9264 45 45 34.9264 45 22.5C45 10.0736 34.9264 0 22.5 0C10.0736 0 0 10.0736 0 22.5C0 34.9264 10.0736 45 22.5 45Z" fill="#CBEF95"/>
<path d="M36.5463 12.9606H8.39887L18.5958 23.5783L21.5384 26.5578C19.9374 26.1918 19.8384 25.9637 19.1289 25.3845C18.7568 25.0807 18.0378 24.255 16.9459 23.1398C13.5374 19.6592 7.75366 13.7532 7.75366 13.7532V31.2278L8.48008 31.9542L8.39878 32.0388L21.3295 44.9695C21.7173 44.9894 22.1075 44.9997 22.5002 44.9997C34.9266 44.9997 45.0002 34.9261 45.0002 22.4997C45.0002 22.1265 44.9905 21.7556 44.9727 21.3869L36.5463 12.9606Z" fill="#B6D686"/>
<path d="M7.75366 13.7534V31.228L16.2753 22.4554L7.75366 13.7534Z" fill="white"/>
<path d="M37.2474 13.7534V31.228L28.7681 22.4907L37.2474 13.7534Z" fill="white"/>
<path d="M8.39966 12.9606H36.5471L25.4847 24.4793C24.6974 25.2991 23.6099 25.7625 22.4734 25.7625C21.3369 25.7625 20.2494 25.2991 19.4621 24.4793L8.39966 12.9606Z" fill="white"/>
<path d="M26.1229 25.092C25.1738 26.0803 23.8436 26.6472 22.4734 26.6472C21.1033 26.6472 19.7731 26.0804 18.824 25.0921L16.9476 23.1383L8.39966 32.0387H36.5471L27.9992 23.1383L26.1229 25.092Z" fill="white"/>
</g>
<defs>
<clipPath id="clip0">
<rect width="45" height="45" fill="white"/>
</clipPath>
</defs>
</svg>
