<svg width="45" height="45" viewBox="0 0 45 45" fill="none" xmlns="http://www.w3.org/2000/svg">
<path d="M22.5 44.9999C34.9263 44.9999 44.9999 34.9263 44.9999 22.5C44.9999 10.0736 34.9263 0 22.5 0C10.0736 0 0 10.0736 0 22.5C0 34.9263 10.0736 44.9999 22.5 44.9999Z" fill="#8EA5BB"/>
<path d="M34.6187 10.2711L34.6175 10.2723C33.9747 9.63885 33.1995 9.13331 32.3302 8.80777V8.80671C32.1312 8.73218 31.8385 8.63955 31.5994 8.58084V8.58154C31.0826 8.45463 30.5449 8.39047 30.0317 8.39038H30.0284C27.7761 8.39038 17.2297 8.39038 14.9702 8.39038H14.9675C12.1802 8.39038 9.77675 10.1432 8.84275 12.6338H8.84187C8.76971 12.8253 8.674 13.126 8.61054 13.3881H8.6109C8.49225 13.8765 8.42554 14.4012 8.42554 14.9323V14.935C8.42554 15.185 8.42554 30.0982 8.42554 30.2003C8.42554 31.9333 9.1145 33.5044 10.232 34.6579L10.2303 34.6597L20.4788 44.9082C21.1446 44.9675 21.8183 44.9995 22.4996 44.9995C34.9259 44.9995 44.9993 34.9261 44.9993 22.4998C44.9993 21.849 44.9701 21.2052 44.916 20.5684L34.6187 10.2711Z" fill="#75889A"/>
<path d="M36.5735 29.499C36.5735 33.4257 33.3903 36.609 29.4635 36.609H14.8344C11.295 36.609 8.42554 33.7397 8.42554 30.2001V14.9349C8.42554 11.3204 11.3557 8.39026 14.9701 8.39026H30.0283C33.6432 8.39026 36.5735 11.3207 36.5735 14.9355V29.499Z" fill="#D7CCBD"/>
<path d="M31.5994 8.58093V13.3883H36.3886C35.8162 11.0239 33.9604 9.16179 31.5994 8.58093Z" fill="#EBACCB"/>
<path d="M28.5816 13.3881V8.39038H14.9673C11.8864 8.39038 9.30459 10.5206 8.61035 13.3882H28.5816V13.3881Z" fill="#8DC652"/>
<path d="M18.3033 25.647C15.5175 23.0271 10.9125 22.5357 8.42554 22.4747V27.274C10.7647 27.2214 13.579 27.6344 15.5425 29.4809C17.7513 31.5582 19.1691 34.5883 22.3866 36.609H30.0316C31.7319 36.609 33.2804 35.96 34.4437 34.8967C23.4392 35.1073 21.9509 29.0775 18.3033 25.647Z" fill="#F6D433"/>
<path d="M32.3302 8.80671C31.615 8.53821 30.8408 8.39038 30.0317 8.39038H27.6624V12.6338H8.84187C8.57337 13.3489 8.42554 14.1232 8.42554 14.9323V17.3015H27.6623V36.609H30.0316C30.8406 36.609 31.6148 36.4612 32.3301 36.1927V30.0317H36.5734V25.364H32.3301V17.3016H36.5734V14.9323C36.5734 14.1233 36.4256 13.349 36.1571 12.6339H32.3301L32.3302 8.80671Z" fill="white"/>
<path d="M29.9972 30.6917C31.5596 30.6917 32.8262 29.4251 32.8262 27.8627C32.8262 26.3003 31.5596 25.0337 29.9972 25.0337C28.4348 25.0337 27.1682 26.3003 27.1682 27.8627C27.1682 29.4251 28.4348 30.6917 29.9972 30.6917Z" fill="#497FC1"/>
<path d="M8.42554 14.9323V16.3113H28.7468V24.8489C29.1338 24.6951 29.5551 24.6096 29.9962 24.6096C30.4374 24.6096 30.8586 24.6951 31.2457 24.8489V16.3113H31.2684V13.8124H8.52301C8.46008 14.1765 8.42554 14.5502 8.42554 14.9323Z" fill="#5F98D1"/>
<path d="M29.9968 28.1707L28.7246 29.4874L29.9968 25.9092L31.2691 29.4874L29.9968 28.1707Z" fill="white"/>
<path d="M20.8023 20.2623C19.8174 20.2623 18.8997 19.9254 18.159 19.3628C17.4034 19.9673 16.4521 20.3331 15.4273 20.3331C14.4044 20.3331 13.4543 19.9691 12.6995 19.3667V23.2779C12.6995 25.5738 15.0923 28.2836 18.0441 28.2836C20.9959 28.2836 23.3888 25.5738 23.3888 23.2779V19.4047C22.658 19.9419 21.7621 20.2623 20.8023 20.2623Z" fill="#497FC1"/>
<path d="M23.3888 21.8725V19.4047C22.658 19.9419 21.7622 20.2623 20.8023 20.2623C19.8174 20.2623 18.8997 19.9254 18.159 19.3628C17.4034 19.9673 16.4521 20.3331 15.4273 20.3331C14.4044 20.3331 13.4543 19.9691 12.6995 19.3667V21.8725H23.3888Z" fill="#E25F3F"/>
<path d="M16.7437 25.156C16.7997 25.156 16.8441 25.1717 16.8769 25.2032C16.9099 25.2346 16.9262 25.2763 16.9262 25.3281V25.6386H14.8445V25.4665C14.8445 25.4316 14.8518 25.3949 14.8665 25.3564C14.8812 25.318 14.9046 25.2833 14.9369 25.2526L15.8581 24.3291C15.935 24.2509 16.0039 24.1759 16.0648 24.1046C16.1256 24.0334 16.1764 23.9626 16.217 23.8927C16.2575 23.8227 16.2886 23.7518 16.3104 23.6798C16.332 23.6077 16.3429 23.5318 16.3429 23.4521C16.3429 23.3793 16.3325 23.3153 16.3114 23.26C16.2904 23.2047 16.2607 23.1583 16.2223 23.1205C16.1839 23.0827 16.1377 23.0544 16.0838 23.0356C16.0299 23.0168 15.9695 23.0073 15.9023 23.0073C15.8407 23.0073 15.7837 23.0161 15.7313 23.0335C15.6789 23.051 15.6322 23.0755 15.5918 23.107C15.5512 23.1385 15.5169 23.1752 15.489 23.2171C15.461 23.2591 15.44 23.3054 15.426 23.3557C15.4021 23.4201 15.3715 23.4627 15.3337 23.4837C15.2959 23.5048 15.2413 23.5096 15.17 23.4984L14.8972 23.4501C14.9182 23.3047 14.9587 23.177 15.0189 23.0671C15.0791 22.9573 15.1543 22.8657 15.2446 22.7922C15.3348 22.7187 15.4383 22.6635 15.5551 22.6264C15.6719 22.5893 15.7975 22.5708 15.9318 22.5708C16.0716 22.5708 16.1997 22.5915 16.3158 22.6327C16.4319 22.674 16.5312 22.7323 16.6137 22.8078C16.6963 22.8834 16.7606 22.9744 16.8069 23.0806C16.853 23.1871 16.8761 23.3052 16.8761 23.4353C16.8761 23.5473 16.8597 23.6508 16.8268 23.7459C16.794 23.841 16.7499 23.9319 16.6946 24.0187C16.6394 24.1054 16.5747 24.1894 16.5006 24.2705C16.4264 24.3517 16.3488 24.4342 16.2677 24.5182L15.5835 25.2169C15.6492 25.1973 15.7147 25.1823 15.7797 25.1717C15.8448 25.1611 15.9066 25.156 15.9655 25.156H16.7438H16.7437Z" fill="white"/>
<path d="M18.8481 24.0562C19.0328 24.1164 19.1693 24.2084 19.2573 24.3323C19.3456 24.4561 19.3895 24.6076 19.3895 24.7866C19.3895 24.9209 19.364 25.0426 19.3129 25.1517C19.2617 25.2608 19.1901 25.3539 19.0978 25.4308C19.0055 25.5077 18.8945 25.5672 18.7652 25.6092C18.6357 25.6512 18.4926 25.6723 18.336 25.6723C18.1793 25.6723 18.0362 25.6513 17.9068 25.6092C17.7774 25.5673 17.6665 25.5078 17.5742 25.4308C17.4819 25.3539 17.4102 25.2608 17.3591 25.1517C17.308 25.0426 17.2825 24.9209 17.2825 24.7866C17.2825 24.6076 17.3266 24.4561 17.4147 24.3323C17.5028 24.2084 17.6391 24.1164 17.8239 24.0562C17.677 23.9947 17.5668 23.9073 17.4934 23.794C17.4199 23.6806 17.3833 23.5443 17.3833 23.3848C17.3833 23.2702 17.4067 23.163 17.4536 23.0637C17.5004 22.9644 17.5659 22.8779 17.6498 22.8045C17.7338 22.7311 17.8342 22.6736 17.951 22.6324C18.0679 22.5912 18.1963 22.5706 18.3361 22.5706C18.4759 22.5706 18.6043 22.5912 18.7211 22.6324C18.8379 22.6737 18.9384 22.7311 19.0223 22.8045C19.1063 22.8779 19.1717 22.9644 19.2186 23.0637C19.2654 23.163 19.2889 23.2701 19.2889 23.3848C19.2889 23.5443 19.2522 23.6807 19.1788 23.794C19.1051 23.9073 18.995 23.9947 18.8481 24.0562ZM18.336 25.267C18.4213 25.267 18.4962 25.2548 18.5605 25.2303C18.6248 25.2058 18.679 25.1719 18.7231 25.1285C18.7672 25.0852 18.8003 25.0334 18.8227 24.9732C18.8451 24.9132 18.8564 24.848 18.8564 24.7781C18.8564 24.6115 18.8103 24.4857 18.7179 24.4004C18.6256 24.3151 18.4982 24.2724 18.3359 24.2724C18.1735 24.2724 18.0463 24.315 17.9539 24.4004C17.8617 24.4857 17.8155 24.6117 17.8155 24.7781C17.8155 24.8481 17.8267 24.9132 17.8491 24.9732C17.8714 25.0333 17.9047 25.0852 17.9488 25.1285C17.9929 25.1719 18.047 25.2058 18.1114 25.2303C18.1758 25.2548 18.2507 25.267 18.336 25.267ZM18.336 22.9608C18.2591 22.9608 18.1926 22.9727 18.1366 22.9964C18.0806 23.0201 18.0341 23.052 17.9971 23.0919C17.96 23.1318 17.9327 23.1776 17.9153 23.2294C17.8978 23.2812 17.889 23.3358 17.889 23.393C17.889 23.4532 17.8963 23.5117 17.911 23.5682C17.9257 23.6249 17.9505 23.6752 17.9855 23.7193C18.0204 23.7634 18.0667 23.7986 18.124 23.8253C18.1814 23.852 18.2521 23.8652 18.3359 23.8652C18.4198 23.8652 18.4905 23.8519 18.5478 23.8253C18.6052 23.7986 18.6513 23.7634 18.6863 23.7193C18.7212 23.6751 18.7461 23.6248 18.7609 23.5682C18.7755 23.5116 18.7828 23.4532 18.7828 23.393C18.7828 23.3357 18.7737 23.2811 18.7555 23.2294C18.7373 23.1776 18.71 23.1318 18.6736 23.0919C18.6372 23.052 18.591 23.0202 18.5352 22.9964C18.4794 22.9727 18.4129 22.9608 18.336 22.9608Z" fill="white"/>
<path d="M21.8828 24.1212C21.8828 24.3856 21.8545 24.6154 21.7979 24.8106C21.7412 25.0058 21.6629 25.167 21.5628 25.2943C21.4627 25.4216 21.3446 25.5164 21.2082 25.5786C21.0718 25.6409 20.9246 25.6721 20.7665 25.6721C20.6084 25.6721 20.4618 25.6409 20.3268 25.5786C20.1918 25.5164 20.0746 25.4216 19.9753 25.2943C19.876 25.167 19.7983 25.0058 19.7424 24.8106C19.6864 24.6154 19.6584 24.3856 19.6584 24.1212C19.6584 23.8554 19.6864 23.6252 19.7424 23.4308C19.7984 23.2364 19.876 23.0754 19.9753 22.9482C20.0746 22.8208 20.1918 22.7261 20.3268 22.6638C20.4618 22.6015 20.6084 22.5704 20.7665 22.5704C20.9246 22.5704 21.0718 22.6015 21.2082 22.6638C21.3446 22.7261 21.4628 22.8208 21.5628 22.9482C21.6629 23.0754 21.7412 23.2364 21.7979 23.4308C21.8545 23.6253 21.8828 23.8555 21.8828 24.1212ZM21.3477 24.1212C21.3477 23.9016 21.3316 23.7196 21.2994 23.5755C21.2672 23.4315 21.2242 23.3167 21.1704 23.2314C21.1165 23.1461 21.0547 23.0863 20.9846 23.0519C20.9146 23.0176 20.8419 23.0005 20.7664 23.0005C20.6922 23.0005 20.6206 23.0175 20.5513 23.0519C20.4821 23.0862 20.4208 23.1461 20.3677 23.2314C20.3145 23.3166 20.2723 23.4314 20.2408 23.5755C20.2093 23.7197 20.1936 23.9016 20.1936 24.1212C20.1936 24.3408 20.2093 24.5228 20.2408 24.6668C20.2723 24.8109 20.3146 24.9256 20.3677 25.011C20.4208 25.0963 20.4821 25.1561 20.5513 25.1904C20.6206 25.2246 20.6922 25.2419 20.7664 25.2419C20.842 25.2419 20.9146 25.2248 20.9846 25.1904C21.0546 25.1561 21.1164 25.0963 21.1704 25.011C21.2242 24.9257 21.2673 24.8109 21.2994 24.6668C21.3316 24.5228 21.3477 24.3409 21.3477 24.1212Z" fill="white"/>
<path d="M18.1672 20.0574C18.9613 20.5629 19.8641 20.8281 20.8023 20.8281C21.5047 20.8281 22.1891 20.6784 22.8229 20.39V23.2778C22.8229 24.2596 22.2999 25.3673 21.4238 26.2409C20.4688 27.1932 19.2685 27.7176 18.0441 27.7176C16.8197 27.7176 15.6193 27.1932 14.6644 26.2409C13.7883 25.3673 13.2653 24.2596 13.2653 23.2778V20.3912C13.9393 20.7223 14.6807 20.8987 15.4275 20.8987C16.3943 20.8988 17.3525 20.6026 18.1672 20.0574ZM18.159 19.3628C17.4034 19.9673 16.4521 20.3331 15.4273 20.3331C14.4044 20.3331 13.4543 19.9691 12.6995 19.3667V23.2779C12.6995 25.5738 15.0923 28.2836 18.0441 28.2836C20.9959 28.2836 23.3888 25.5738 23.3888 23.2779V19.4047C22.658 19.9419 21.7622 20.2623 20.8023 20.2623C19.8175 20.2623 18.8997 19.9255 18.159 19.3628Z" fill="white"/>
<path d="M13.0225 21.8632H23.0303" stroke="white" stroke-width="6.53" stroke-miterlimit="10"/>
<path d="M36.5735 29.499C36.5735 33.4257 33.3903 36.609 29.4635 36.609H14.8344C11.295 36.609 8.42554 33.7397 8.42554 30.2001V14.9349C8.42554 11.3204 11.3557 8.39026 14.9701 8.39026H30.0283C33.6432 8.39026 36.5735 11.3207 36.5735 14.9355V29.499Z" fill="#D7CCBD"/>
<path d="M31.5994 8.58093V13.3883H36.3886C35.8162 11.0239 33.9604 9.16179 31.5994 8.58093Z" fill="#EBACCB"/>
<path d="M28.5816 13.3881V8.39038H14.9673C11.8864 8.39038 9.30459 10.5206 8.61035 13.3882H28.5816V13.3881Z" fill="#8DC652"/>
<path d="M18.3033 25.647C15.5175 23.0271 10.9125 22.5357 8.42554 22.4747V27.274C10.7647 27.2214 13.579 27.6344 15.5425 29.4809C17.7513 31.5582 19.1691 34.5883 22.3866 36.609H30.0316C31.7319 36.609 33.2804 35.96 34.4437 34.8967C23.4392 35.1073 21.9509 29.0775 18.3033 25.647Z" fill="#F6D433"/>
<path d="M32.3302 8.80671C31.615 8.53821 30.8408 8.39038 30.0317 8.39038H27.6624V12.6338H8.84187C8.57337 13.3489 8.42554 14.1232 8.42554 14.9323V17.3015H27.6623V36.609H30.0316C30.8406 36.609 31.6148 36.4612 32.3301 36.1927V30.0317H36.5734V25.364H32.3301V17.3016H36.5734V14.9323C36.5734 14.1233 36.4256 13.349 36.1571 12.6339H32.3301L32.3302 8.80671Z" fill="white"/>
<path d="M29.9972 30.6917C31.5596 30.6917 32.8262 29.4251 32.8262 27.8627C32.8262 26.3003 31.5596 25.0337 29.9972 25.0337C28.4348 25.0337 27.1682 26.3003 27.1682 27.8627C27.1682 29.4251 28.4348 30.6917 29.9972 30.6917Z" fill="#497FC1"/>
<path d="M8.42554 14.9323V16.3113H28.7468V24.8489C29.1338 24.6951 29.5551 24.6096 29.9962 24.6096C30.4374 24.6096 30.8586 24.6951 31.2457 24.8489V16.3113H31.2684V13.8124H8.52301C8.46008 14.1765 8.42554 14.5502 8.42554 14.9323Z" fill="#5F98D1"/>
<path d="M29.9968 28.1707L28.7246 29.4874L29.9968 25.9092L31.2691 29.4874L29.9968 28.1707Z" fill="white"/>
<path d="M20.8023 20.2623C19.8174 20.2623 18.8997 19.9254 18.159 19.3628C17.4034 19.9673 16.4521 20.3331 15.4273 20.3331C14.4044 20.3331 13.4543 19.9691 12.6995 19.3667V23.2779C12.6995 25.5738 15.0923 28.2836 18.0441 28.2836C20.9959 28.2836 23.3888 25.5738 23.3888 23.2779V19.4047C22.658 19.9419 21.7621 20.2623 20.8023 20.2623Z" fill="#497FC1"/>
<path d="M23.3888 21.8725V19.4047C22.658 19.9419 21.7622 20.2623 20.8023 20.2623C19.8174 20.2623 18.8997 19.9254 18.159 19.3628C17.4034 19.9673 16.4521 20.3331 15.4273 20.3331C14.4044 20.3331 13.4543 19.9691 12.6995 19.3667V21.8725H23.3888Z" fill="#E25F3F"/>
<path d="M16.7437 25.156C16.7997 25.156 16.8441 25.1717 16.8769 25.2032C16.9099 25.2346 16.9262 25.2763 16.9262 25.3281V25.6386H14.8445V25.4665C14.8445 25.4316 14.8518 25.3949 14.8665 25.3564C14.8812 25.318 14.9046 25.2833 14.9369 25.2526L15.8581 24.3291C15.935 24.2509 16.0039 24.1759 16.0648 24.1046C16.1256 24.0334 16.1764 23.9626 16.217 23.8927C16.2575 23.8227 16.2886 23.7518 16.3104 23.6798C16.332 23.6077 16.3429 23.5318 16.3429 23.4521C16.3429 23.3793 16.3325 23.3153 16.3114 23.26C16.2904 23.2047 16.2607 23.1583 16.2223 23.1205C16.1839 23.0827 16.1377 23.0544 16.0838 23.0356C16.0299 23.0168 15.9695 23.0073 15.9023 23.0073C15.8407 23.0073 15.7837 23.0161 15.7313 23.0335C15.6789 23.051 15.6322 23.0755 15.5918 23.107C15.5512 23.1385 15.5169 23.1752 15.489 23.2171C15.461 23.2591 15.44 23.3054 15.426 23.3557C15.4021 23.4201 15.3715 23.4627 15.3337 23.4837C15.2959 23.5048 15.2413 23.5096 15.17 23.4984L14.8972 23.4501C14.9182 23.3047 14.9587 23.177 15.0189 23.0671C15.0791 22.9573 15.1543 22.8657 15.2446 22.7922C15.3348 22.7187 15.4383 22.6635 15.5551 22.6264C15.6719 22.5893 15.7975 22.5708 15.9318 22.5708C16.0716 22.5708 16.1997 22.5915 16.3158 22.6327C16.4319 22.674 16.5312 22.7323 16.6137 22.8078C16.6963 22.8834 16.7606 22.9744 16.8069 23.0806C16.853 23.1871 16.8761 23.3052 16.8761 23.4353C16.8761 23.5473 16.8597 23.6508 16.8268 23.7459C16.794 23.841 16.7499 23.9319 16.6946 24.0187C16.6394 24.1054 16.5747 24.1894 16.5006 24.2705C16.4264 24.3517 16.3488 24.4342 16.2677 24.5182L15.5835 25.2169C15.6492 25.1973 15.7147 25.1823 15.7797 25.1717C15.8448 25.1611 15.9066 25.156 15.9655 25.156H16.7438H16.7437Z" fill="white"/>
<path d="M18.8481 24.0562C19.0328 24.1164 19.1693 24.2084 19.2573 24.3323C19.3456 24.4561 19.3895 24.6076 19.3895 24.7866C19.3895 24.9209 19.364 25.0426 19.3129 25.1517C19.2617 25.2608 19.1901 25.3539 19.0978 25.4308C19.0055 25.5077 18.8945 25.5672 18.7652 25.6092C18.6357 25.6512 18.4926 25.6723 18.336 25.6723C18.1793 25.6723 18.0362 25.6513 17.9068 25.6092C17.7774 25.5673 17.6665 25.5078 17.5742 25.4308C17.4819 25.3539 17.4102 25.2608 17.3591 25.1517C17.308 25.0426 17.2825 24.9209 17.2825 24.7866C17.2825 24.6076 17.3266 24.4561 17.4147 24.3323C17.5028 24.2084 17.6391 24.1164 17.8239 24.0562C17.677 23.9947 17.5668 23.9073 17.4934 23.794C17.4199 23.6806 17.3833 23.5443 17.3833 23.3848C17.3833 23.2702 17.4067 23.163 17.4536 23.0637C17.5004 22.9644 17.5659 22.8779 17.6498 22.8045C17.7338 22.7311 17.8342 22.6736 17.951 22.6324C18.0679 22.5912 18.1963 22.5706 18.3361 22.5706C18.4759 22.5706 18.6043 22.5912 18.7211 22.6324C18.8379 22.6737 18.9384 22.7311 19.0223 22.8045C19.1063 22.8779 19.1717 22.9644 19.2186 23.0637C19.2654 23.163 19.2889 23.2701 19.2889 23.3848C19.2889 23.5443 19.2522 23.6807 19.1788 23.794C19.1051 23.9073 18.995 23.9947 18.8481 24.0562ZM18.336 25.267C18.4213 25.267 18.4962 25.2548 18.5605 25.2303C18.6248 25.2058 18.679 25.1719 18.7231 25.1285C18.7672 25.0852 18.8003 25.0334 18.8227 24.9732C18.8451 24.9132 18.8564 24.848 18.8564 24.7781C18.8564 24.6115 18.8103 24.4857 18.7179 24.4004C18.6256 24.3151 18.4982 24.2724 18.3359 24.2724C18.1735 24.2724 18.0463 24.315 17.9539 24.4004C17.8617 24.4857 17.8155 24.6117 17.8155 24.7781C17.8155 24.8481 17.8267 24.9132 17.8491 24.9732C17.8714 25.0333 17.9047 25.0852 17.9488 25.1285C17.9929 25.1719 18.047 25.2058 18.1114 25.2303C18.1758 25.2548 18.2507 25.267 18.336 25.267ZM18.336 22.9608C18.2591 22.9608 18.1926 22.9727 18.1366 22.9964C18.0806 23.0201 18.0341 23.052 17.9971 23.0919C17.96 23.1318 17.9327 23.1776 17.9153 23.2294C17.8978 23.2812 17.889 23.3358 17.889 23.393C17.889 23.4532 17.8963 23.5117 17.911 23.5682C17.9257 23.6249 17.9505 23.6752 17.9855 23.7193C18.0204 23.7634 18.0667 23.7986 18.124 23.8253C18.1814 23.852 18.2521 23.8652 18.3359 23.8652C18.4198 23.8652 18.4905 23.8519 18.5478 23.8253C18.6052 23.7986 18.6513 23.7634 18.6863 23.7193C18.7212 23.6751 18.7461 23.6248 18.7609 23.5682C18.7755 23.5116 18.7828 23.4532 18.7828 23.393C18.7828 23.3357 18.7737 23.2811 18.7555 23.2294C18.7373 23.1776 18.71 23.1318 18.6736 23.0919C18.6372 23.052 18.591 23.0202 18.5352 22.9964C18.4794 22.9727 18.4129 22.9608 18.336 22.9608Z" fill="white"/>
<path d="M21.8828 24.1212C21.8828 24.3856 21.8545 24.6154 21.7979 24.8106C21.7412 25.0058 21.6629 25.167 21.5628 25.2943C21.4627 25.4216 21.3446 25.5164 21.2082 25.5786C21.0718 25.6409 20.9246 25.6721 20.7665 25.6721C20.6084 25.6721 20.4618 25.6409 20.3268 25.5786C20.1918 25.5164 20.0746 25.4216 19.9753 25.2943C19.876 25.167 19.7983 25.0058 19.7424 24.8106C19.6864 24.6154 19.6584 24.3856 19.6584 24.1212C19.6584 23.8554 19.6864 23.6252 19.7424 23.4308C19.7984 23.2364 19.876 23.0754 19.9753 22.9482C20.0746 22.8208 20.1918 22.7261 20.3268 22.6638C20.4618 22.6015 20.6084 22.5704 20.7665 22.5704C20.9246 22.5704 21.0718 22.6015 21.2082 22.6638C21.3446 22.7261 21.4628 22.8208 21.5628 22.9482C21.6629 23.0754 21.7412 23.2364 21.7979 23.4308C21.8545 23.6253 21.8828 23.8555 21.8828 24.1212ZM21.3477 24.1212C21.3477 23.9016 21.3316 23.7196 21.2994 23.5755C21.2672 23.4315 21.2242 23.3167 21.1704 23.2314C21.1165 23.1461 21.0547 23.0863 20.9846 23.0519C20.9146 23.0176 20.8419 23.0005 20.7664 23.0005C20.6922 23.0005 20.6206 23.0175 20.5513 23.0519C20.4821 23.0862 20.4208 23.1461 20.3677 23.2314C20.3145 23.3166 20.2723 23.4314 20.2408 23.5755C20.2093 23.7197 20.1936 23.9016 20.1936 24.1212C20.1936 24.3408 20.2093 24.5228 20.2408 24.6668C20.2723 24.8109 20.3146 24.9256 20.3677 25.011C20.4208 25.0963 20.4821 25.1561 20.5513 25.1904C20.6206 25.2246 20.6922 25.2419 20.7664 25.2419C20.842 25.2419 20.9146 25.2248 20.9846 25.1904C21.0546 25.1561 21.1164 25.0963 21.1704 25.011C21.2242 24.9257 21.2673 24.8109 21.2994 24.6668C21.3316 24.5228 21.3477 24.3409 21.3477 24.1212Z" fill="white"/>
<path d="M18.1672 20.0574C18.9613 20.5629 19.8641 20.8281 20.8023 20.8281C21.5047 20.8281 22.1891 20.6784 22.8229 20.39V23.2778C22.8229 24.2596 22.2999 25.3673 21.4238 26.2409C20.4688 27.1932 19.2685 27.7176 18.0441 27.7176C16.8197 27.7176 15.6193 27.1932 14.6644 26.2409C13.7883 25.3673 13.2653 24.2596 13.2653 23.2778V20.3912C13.9393 20.7223 14.6807 20.8987 15.4275 20.8987C16.3943 20.8988 17.3525 20.6026 18.1672 20.0574ZM18.159 19.3628C17.4034 19.9673 16.4521 20.3331 15.4273 20.3331C14.4044 20.3331 13.4543 19.9691 12.6995 19.3667V23.2779C12.6995 25.5738 15.0923 28.2836 18.0441 28.2836C20.9959 28.2836 23.3888 25.5738 23.3888 23.2779V19.4047C22.658 19.9419 21.7622 20.2623 20.8023 20.2623C19.8175 20.2623 18.8997 19.9255 18.159 19.3628Z" fill="white"/>
<path d="M23.0295 21.5804H13.0225V22.1462H23.0295V21.5804Z" fill="white"/>
</svg>
