<svg width="45" height="45" viewBox="0 0 45 45" fill="none" xmlns="http://www.w3.org/2000/svg">
<path d="M22.5 45C34.9264 45 45 34.9264 45 22.5C45 10.0736 34.9264 0 22.5 0C10.0736 0 0 10.0736 0 22.5C0 34.9264 10.0736 45 22.5 45Z" fill="#C2D5FE"/>
<path d="M11.9263 8.98299L11.9256 8.98334C9.32063 10.3425 8.22771 13.4853 9.42126 16.1702C11.1393 20.0351 13.446 23.5704 16.23 26.6663L18.334 28.7703L32.315 42.7514C35.8148 41.052 38.8069 38.472 41.0053 35.2997L35.8464 30.1408C35.6476 29.8478 35.3921 29.5872 35.0834 29.3778L15.6225 9.917C14.8056 8.71334 13.2159 8.3101 11.9263 8.98299Z" fill="#B4C5EA"/>
<path d="M30.7261 26.4212C30.0061 25.9326 29.0602 25.935 28.3429 26.4274L27.31 27.1363C26.1595 27.9259 24.6295 27.883 23.5237 27.032C22.4815 26.2298 21.4867 25.3697 20.5421 24.4583C19.6306 23.5137 18.7705 22.519 17.9684 21.4767C17.1172 20.3709 17.0744 18.8409 17.864 17.6904L18.573 16.6575C19.0652 15.9401 19.0678 14.9942 18.5792 14.2742L15.6226 9.91706C14.8058 8.71349 13.216 8.31025 11.9264 8.98305L11.9256 8.9834C9.32063 10.3425 8.22771 13.4853 9.42126 16.1702C11.1393 20.0352 13.446 23.5704 16.23 26.6664L18.334 28.7704C21.43 31.5542 24.9653 33.8611 28.8302 35.5791C31.5151 36.7727 34.6578 35.6797 36.017 33.0747L36.0173 33.074C36.6901 31.7844 36.287 30.1946 35.0833 29.3778L30.7261 26.4212Z" fill="white"/>
</svg>

