<svg width="57" height="68" viewBox="0 0 57 68" fill="none" xmlns="http://www.w3.org/2000/svg">
<path d="M7.84998 3.49868C5.50788 5.27865 5.59029 9.34529 8.03361 12.5602L8.92012 13.7267L5.52098 16.31L13.4888 26.7941L15.1884 25.5024L8.98276 17.3371L10.6823 16.0454L40.1535 54.8236L52.154 61.794L48.6513 48.3653L16.5315 6.1019C14.0882 2.88698 10.1921 1.71871 7.84998 3.49868ZM48.5863 57.0996L43.1343 53.9271L46.9998 50.9894L48.5863 57.0996ZM45.8382 48.1917L40.7395 52.0667L12.3927 14.768L17.4914 10.893L45.8382 48.1917ZM15.7288 8.55216L10.6301 12.4271L9.74354 11.2607C8.27323 9.32603 8.22396 6.89489 9.63336 5.82375C11.0428 4.75262 13.3719 5.45104 14.8423 7.38568L15.7288 8.55216Z" fill="#80C41C"/>
</svg>
