<svg width="30" height="30" viewBox="0 0 30 30" fill="none" xmlns="http://www.w3.org/2000/svg">
<g clip-path="url(#clip0)">
<path d="M7.50016 0C6.9084 0 6.42871 0.479694 6.42871 1.07145V3.21428H8.57154V1.07145C8.57154 0.479694 8.09185 0 7.50016 0Z" fill="#C2D5FE"/>
<path d="M22.4999 0C21.9082 0 21.4285 0.479694 21.4285 1.07145V3.21428H23.5713V1.07145C23.5714 0.479694 23.0917 0 22.4999 0Z" fill="#C2D5FE"/>
<path d="M26.7857 3.21484H23.5714V7.50058C23.5714 8.09233 23.0917 8.57203 22.5 8.57203C21.9082 8.57203 21.4285 8.09233 21.4285 7.50058V3.21484H8.5714V7.50058C8.5714 8.09233 8.09171 8.57203 7.49995 8.57203C6.9082 8.57203 6.4285 8.09233 6.4285 7.50058V3.21484H3.21428C1.43908 3.21484 0 4.65393 0 6.42913V26.7863C0 28.5615 1.43908 30.0006 3.21428 30.0006H26.7857C28.5609 30.0006 30 28.5615 30 26.7863V6.42913C30 4.65393 28.5609 3.21484 26.7857 3.21484ZM27.8571 26.7863C27.8571 27.378 27.3774 27.8577 26.7857 27.8577H3.21428C2.62253 27.8577 2.14283 27.378 2.14283 26.7863V12.8577H27.8571V26.7863Z" fill="#C2D5FE"/>
<path d="M8.57147 15H6.42863C5.83687 15 5.35718 15.4797 5.35718 16.0715C5.35718 16.6632 5.83687 17.1429 6.42863 17.1429H8.57147C9.16322 17.1429 9.64292 16.6632 9.64292 16.0715C9.64292 15.4797 9.16322 15 8.57147 15Z" fill="#C2D5FE"/>
<path d="M16.0717 15H13.9289C13.3371 15 12.8574 15.4797 12.8574 16.0715C12.8574 16.6632 13.3371 17.1429 13.9289 17.1429H16.0717C16.6635 17.1429 17.1432 16.6632 17.1432 16.0715C17.1432 15.4797 16.6635 15 16.0717 15Z" fill="#C2D5FE"/>
<path d="M23.5712 15H21.4284C20.8366 15 20.3569 15.4797 20.3569 16.0715C20.3569 16.6632 20.8366 17.1429 21.4284 17.1429H23.5712C24.163 17.1429 24.6427 16.6632 24.6427 16.0715C24.6427 15.4797 24.1629 15 23.5712 15Z" fill="#C2D5FE"/>
<path d="M8.57147 19.2861H6.42863C5.83687 19.2861 5.35718 19.7658 5.35718 20.3576C5.35718 20.9493 5.83687 21.429 6.42863 21.429H8.57147C9.16322 21.429 9.64292 20.9493 9.64292 20.3576C9.64292 19.7658 9.16322 19.2861 8.57147 19.2861Z" fill="#C2D5FE"/>
<path d="M16.0717 19.2861H13.9289C13.3371 19.2861 12.8574 19.7658 12.8574 20.3576C12.8574 20.9493 13.3371 21.429 13.9289 21.429H16.0717C16.6635 21.429 17.1432 20.9493 17.1432 20.3576C17.1432 19.7658 16.6635 19.2861 16.0717 19.2861Z" fill="#C2D5FE"/>
<path d="M23.5712 19.2861H21.4284C20.8366 19.2861 20.3569 19.7658 20.3569 20.3576C20.3569 20.9493 20.8366 21.429 21.4284 21.429H23.5712C24.163 21.429 24.6427 20.9493 24.6427 20.3576C24.6426 19.7658 24.1629 19.2861 23.5712 19.2861Z" fill="#C2D5FE"/>
<path d="M8.57147 23.5713H6.42863C5.83687 23.5713 5.35718 24.051 5.35718 24.6427C5.35718 25.2345 5.83687 25.7141 6.42863 25.7141H8.57147C9.16322 25.7141 9.64292 25.2344 9.64292 24.6427C9.64292 24.0509 9.16322 23.5713 8.57147 23.5713Z" fill="#C2D5FE"/>
<path d="M16.0717 23.5713H13.9289C13.3371 23.5713 12.8574 24.051 12.8574 24.6427C12.8574 25.2345 13.3371 25.7142 13.9289 25.7142H16.0717C16.6635 25.7142 17.1432 25.2345 17.1432 24.6427C17.1432 24.051 16.6635 23.5713 16.0717 23.5713Z" fill="#C2D5FE"/>
<path d="M23.5712 23.5713H21.4284C20.8366 23.5713 20.3569 24.051 20.3569 24.6427C20.3569 25.2345 20.8366 25.7142 21.4284 25.7142H23.5712C24.163 25.7142 24.6427 25.2345 24.6427 24.6427C24.6427 24.051 24.1629 23.5713 23.5712 23.5713Z" fill="#C2D5FE"/>
</g>
<defs>
<clipPath id="clip0">
<rect width="30" height="30" fill="white"/>
</clipPath>
</defs>
</svg>
