<svg width="59" height="60" viewBox="0 0 59 60" fill="none" xmlns="http://www.w3.org/2000/svg">
<g clip-path="url(#clip0)">
<path d="M58.7286 3.19856C58.3607 2.81596 57.7574 2.80895 57.3812 3.18308L20.04 40.2098L7.38426 25.5009C7.04051 25.0966 6.4396 25.0522 6.04209 25.4018C5.64457 25.7514 5.60092 26.3625 5.94467 26.7668C5.94681 26.7693 5.94895 26.7718 5.95121 26.7744L19.2731 42.2574C19.4446 42.4548 19.6879 42.5726 19.9468 42.5835H19.9848C20.2337 42.584 20.4727 42.4853 20.6509 42.3087L58.7134 4.56881C59.0897 4.19468 59.0965 3.58116 58.7286 3.19856Z" fill="#80C41C"/>
<path d="M53.9116 18.8857C53.422 19.0805 53.1806 19.642 53.3721 20.1399C58.7223 34.0696 51.9553 49.7727 38.2577 55.2136C24.5601 60.6546 9.11876 53.7729 3.76849 39.8431C-1.58166 25.9132 5.18525 10.2102 18.8829 4.76933C25.5727 2.11205 33.0345 2.31575 39.5744 5.33422C40.0576 5.54457 40.6169 5.3168 40.8237 4.82546C41.024 4.34971 40.8207 3.79789 40.3623 3.57302C26.0085 -3.05928 9.08546 3.39763 2.56382 17.9947C-3.95783 32.5918 2.39134 49.8017 16.7453 56.4339C20.4525 58.1468 24.477 59.0334 28.5488 59.0341C44.3247 59.0239 57.1056 46.0099 57.0956 29.9666C57.0934 26.3632 56.4319 22.7917 55.1449 19.4343C54.9533 18.9365 54.4012 18.6909 53.9116 18.8857Z" fill="#80C41C"/>
</g>
<defs>
<clipPath id="clip0">
<rect width="59" height="60" fill="white"/>
</clipPath>
</defs>
</svg>
