<svg width="25" height="25" viewBox="0 0 25 25" fill="none" xmlns="http://www.w3.org/2000/svg">
<path d="M12.5 25C5.60722 25 0 19.3928 0 12.5C0 5.60722 5.60722 0 12.5 0C19.3928 0 25 5.60722 25 12.5C25 19.3928 19.3928 25 12.5 25ZM12.5 1.5625C6.46877 1.5625 1.5625 6.46877 1.5625 12.5C1.5625 18.5312 6.46877 23.4375 12.5 23.4375C18.5312 23.4375 23.4375 18.5312 23.4375 12.5C23.4375 6.46877 18.5312 1.5625 12.5 1.5625Z" fill="#EB7E7E"/>
<path d="M8.6336 17.1478C8.43352 17.1478 8.23344 17.0719 8.08142 16.9188C7.77625 16.6136 7.77625 16.1188 8.08142 15.8137L15.8157 8.07916C16.1211 7.77399 16.6159 7.77399 16.921 8.07916C17.2262 8.38434 17.2262 8.8791 16.921 9.18447L9.18654 16.9188C9.03242 17.0719 8.83253 17.1478 8.6336 17.1478Z" fill="#EB7E7E"/>
<path d="M16.3664 17.1478C16.1665 17.1478 15.9664 17.0719 15.8144 16.9187L8.0801 9.1854C7.77473 8.88022 7.77473 8.38546 8.0801 8.08028C8.38527 7.77492 8.88004 7.77492 9.18522 8.08028L16.9195 15.8146C17.2249 16.1198 17.2249 16.6145 16.9195 16.9197C16.7665 17.0719 16.5665 17.1478 16.3664 17.1478Z" fill="#EB7E7E"/>
</svg>

