<svg width="20" height="20" viewBox="0 0 20 20" fill="none" xmlns="http://www.w3.org/2000/svg">
<path d="M13.4374 7.1875C12.3249 7.1875 11.2374 7.5174 10.3124 8.13548C9.38733 8.75357 8.66636 9.63207 8.24062 10.6599C7.81488 11.6877 7.70348 12.8187 7.92052 13.9099C8.13757 15.001 8.6733 16.0033 9.45997 16.79C10.2466 17.5766 11.2489 18.1124 12.3401 18.3294C13.4312 18.5465 14.5622 18.4351 15.59 18.0093C16.6179 17.5836 17.4964 16.8626 18.1145 15.9376C18.7325 15.0126 19.0624 13.925 19.0624 12.8125C19.0624 11.3207 18.4698 9.88992 17.4149 8.83502C16.36 7.78013 14.9293 7.1875 13.4374 7.1875ZM13.4374 17.1875C12.5721 17.1875 11.7263 16.9309 11.0068 16.4502C10.2874 15.9694 9.7266 15.2862 9.39547 14.4867C9.06434 13.6873 8.9777 12.8076 9.14651 11.959C9.31532 11.1103 9.73199 10.3308 10.3438 9.71891C10.9557 9.10705 11.7353 8.69037 12.5839 8.52156C13.4326 8.35275 14.3123 8.43939 15.1117 8.77053C15.9111 9.10166 16.5944 9.66241 17.0751 10.3819C17.5559 11.1013 17.8124 11.9472 17.8124 12.8125C17.8124 13.9728 17.3515 15.0856 16.531 15.9061C15.7106 16.7266 14.5978 17.1875 13.4374 17.1875Z" fill="#EA9D2D"/>
<path d="M6.56244 4.375C5.44992 4.375 4.36239 4.7049 3.43736 5.32298C2.51233 5.94107 1.79136 6.81957 1.36562 7.84741C0.939876 8.87524 0.828482 10.0062 1.04552 11.0974C1.26257 12.1885 1.7983 13.1908 2.58497 13.9775C3.37164 14.7641 4.37392 15.2999 5.46506 15.5169C6.5562 15.734 7.6872 15.6226 8.71504 15.1968C9.74287 14.7711 10.6214 14.0501 11.2395 13.1251C11.8575 12.2001 12.1874 11.1125 12.1874 10C12.1874 8.50816 11.5948 7.07742 10.5399 6.02252C9.48502 4.96763 8.05428 4.375 6.56244 4.375ZM6.56244 14.375C5.69715 14.375 4.85129 14.1184 4.13182 13.6377C3.41236 13.1569 2.8516 12.4737 2.52047 11.6742C2.18934 10.8748 2.1027 9.99515 2.27151 9.14648C2.44032 8.29781 2.85699 7.51826 3.46885 6.90641C4.0807 6.29455 4.86025 5.87787 5.70892 5.70906C6.55759 5.54025 7.43725 5.62689 8.23668 5.95803C9.03611 6.28916 9.71939 6.84992 10.2001 7.56938C10.6809 8.28885 10.9374 9.13471 10.9374 10C10.9374 11.1603 10.4765 12.2731 9.65603 13.0936C8.83556 13.9141 7.72276 14.375 6.56244 14.375Z" fill="#FBB540"/>
<path d="M8.75 2.8125L6.5625 5.625L4.375 2.8125L5.3125 1.5625H7.8125L8.75 2.8125Z" fill="#0A9ACD"/>
<path d="M4.375 2.8125H8.75L7.8125 1.5625H5.3125L4.375 2.8125Z" fill="#0BAFEA"/>
<path d="M7.5 2.8125L6.5625 1.5625L5.625 2.8125H7.5Z" fill="#8FEAFF"/>
<path d="M6.5625 5.625L7.5 2.8125H5.625L6.5625 5.625Z" fill="#0BAFEA"/>
<path d="M12.8741 5.3125C13.0932 5.3125 13.3033 5.39952 13.4582 5.55441L13.8413 5.9375L14.2243 5.55441C14.3792 5.39956 14.5892 5.31255 14.8082 5.3125C14.9816 5.3125 15.1506 5.36704 15.2912 5.46841C15.4318 5.56978 15.537 5.71283 15.5918 5.8773C15.6292 5.98929 15.6346 6.10946 15.6075 6.22436C15.5803 6.33925 15.5218 6.44431 15.4383 6.52777L13.8413 8.125L12.244 6.52777C12.1606 6.4443 12.102 6.33924 12.0749 6.22435C12.0477 6.10946 12.0532 5.98929 12.0905 5.8773C12.1453 5.71283 12.2505 5.56978 12.3911 5.46841C12.5318 5.36705 12.7007 5.3125 12.8741 5.3125Z" fill="#F16465"/>
</svg>
