<svg width="20" height="20" viewBox="0 0 20 20" fill="none" xmlns="http://www.w3.org/2000/svg">
<g clip-path="url(#clip0)">
<path d="M8.28805 8.28884C8.58035 8.04037 8.76637 7.67037 8.76637 7.25748C8.76637 6.51103 8.15914 5.90381 7.4127 5.90381H6.38133C6.20332 5.90381 6.05902 6.04811 6.05902 6.22611V10.0077C6.05902 10.1857 6.20332 10.33 6.38133 10.33C6.55933 10.33 6.70363 10.1857 6.70363 10.0077V8.61111H7.41266C7.80359 8.61111 8.12168 8.92916 8.12168 9.32013V10.0077C8.12168 10.1857 8.26598 10.33 8.44399 10.33C8.622 10.33 8.76629 10.1857 8.76629 10.0077V9.32013C8.76637 8.9074 8.58039 8.53732 8.28805 8.28884ZM7.4127 7.96658H6.70367V6.5485H7.4127C7.80363 6.5485 8.12172 6.86654 8.12172 7.25752C8.12176 7.64849 7.80371 7.96658 7.4127 7.96658Z" fill="#546E7A"/>
<path d="M13.0176 5.9043H11.9862C11.8082 5.9043 11.6639 6.04859 11.6639 6.2266V10.0082C11.6639 10.1862 11.8082 10.3305 11.9862 10.3305C12.1643 10.3305 12.3086 10.1862 12.3086 10.0082V8.6116H13.0176C13.7639 8.6116 14.3713 8.00437 14.3713 7.25793C14.3713 6.51148 13.764 5.9043 13.0176 5.9043ZM13.0176 7.96703H12.3086V6.54894H13.0176C13.4086 6.54894 13.7266 6.86699 13.7266 7.25797C13.7267 7.64894 13.4086 7.96703 13.0176 7.96703Z" fill="#546E7A"/>
<path d="M10.1723 5.9043C9.99433 5.9043 9.85004 6.04859 9.85004 6.2266V10.0082C9.85004 10.1862 9.99429 10.3305 10.1723 10.3305C10.3504 10.3305 10.4946 10.1862 10.4946 10.0082V6.2266C10.4946 6.04859 10.3504 5.9043 10.1723 5.9043Z" fill="#546E7A"/>
<path d="M13.996 11.1128H6.00309C5.82508 11.1128 5.68079 11.2571 5.68079 11.4351C5.68079 11.6131 5.82508 11.7574 6.00309 11.7574H13.996C14.174 11.7574 14.3183 11.6131 14.3183 11.4351C14.3183 11.2571 14.1741 11.1128 13.996 11.1128Z" fill="#546E7A"/>
<path d="M13.0878 12.4663H6.91129C6.73329 12.4663 6.58899 12.6106 6.58899 12.7886C6.58899 12.9666 6.73329 13.1109 6.91129 13.1109H13.0879C13.2659 13.1109 13.4102 12.9666 13.4102 12.7886C13.4102 12.6106 13.2659 12.4663 13.0878 12.4663Z" fill="#546E7A"/>
<path d="M19.8506 18.3854C19.3704 18.0759 18.8774 17.7907 18.3737 17.5293C18.4757 17.1519 18.8157 16.2403 19.7636 15.9786C19.9352 15.9313 20.0359 15.7537 19.9885 15.5821C19.9411 15.4106 19.7639 15.3098 19.592 15.3573C19.0258 15.5136 18.624 15.8346 18.3409 16.1856C18.3581 15.321 18.7029 14.5108 19.3161 13.8976C19.442 13.7718 19.442 13.5677 19.3161 13.4419C19.1902 13.316 18.9861 13.316 18.8603 13.4419C18.2932 14.009 17.9188 14.7174 17.7693 15.4876C17.6045 15.2157 17.406 14.9616 17.1755 14.7311C17.0496 14.6053 16.8455 14.6052 16.7197 14.7311C16.5938 14.8569 16.5938 15.061 16.7197 15.1869C17.2643 15.7314 17.5966 16.4314 17.6764 17.1866C17.2282 16.978 16.7723 16.7878 16.3097 16.6169V7.33107C16.3097 3.85196 13.4792 1.02148 10.0001 1.02148C6.52122 1.02148 3.69094 3.85192 3.69094 7.33107V16.6169C3.22821 16.7878 2.77231 16.9779 2.32407 17.1866C2.40387 16.4313 2.73618 15.7314 3.28075 15.1869C3.40661 15.061 3.40661 14.8569 3.28075 14.7311C3.15489 14.6052 2.95079 14.6052 2.82497 14.7311C2.59442 14.9616 2.39598 15.2157 2.23122 15.4876C2.08164 14.7174 1.70731 14.009 1.14016 13.4419C1.0143 13.316 0.810197 13.316 0.684376 13.4419C0.558516 13.5677 0.558516 13.7718 0.684376 13.8976C1.29762 14.5109 1.64239 15.3212 1.65961 16.1857C1.37653 15.8346 0.974767 15.5136 0.408438 15.3573C0.236875 15.3099 0.0593357 15.4105 0.0119528 15.5821C-0.0354301 15.7537 0.0652732 15.9313 0.236836 15.9786C1.18524 16.2405 1.52508 17.1526 1.62692 17.5293C1.12317 17.7906 0.630157 18.0759 0.149922 18.3854C0.0297653 18.4628 -0.0250395 18.6101 0.0153512 18.7473C0.0557028 18.8845 0.181562 18.9786 0.324571 18.9786H19.676C19.8189 18.9786 19.9448 18.8845 19.9852 18.7473C20.0255 18.6102 19.9707 18.4628 19.8506 18.3854ZM4.33556 7.33107C4.33556 4.20739 6.87665 1.66613 10.0001 1.66613C13.1237 1.66613 15.665 4.20743 15.665 7.33107V16.3928C13.8494 15.799 11.9405 15.4924 10.0002 15.4924C8.05994 15.4924 6.15111 15.7991 4.33552 16.3927V7.33107H4.33556ZM1.48949 18.334C4.0847 16.8935 7.00392 16.137 10.0002 16.137C12.9965 16.137 15.9157 16.8935 18.5109 18.334H1.48949Z" fill="#546E7A"/>
</g>
<defs>
<clipPath id="clip0">
<rect width="20" height="20" fill="white"/>
</clipPath>
</defs>
</svg>
