<svg width="24" height="22" viewBox="0 0 24 22" fill="none" xmlns="http://www.w3.org/2000/svg">
<path d="M23.0289 17.3V11.5004C23.0289 10.2219 23.0289 9.58263 22.8499 9.00456C22.6914 8.49288 22.4318 8.01824 22.0865 7.60879C21.6963 7.14622 21.158 6.80135 20.0815 6.11161L15.5559 3.21208C14.3052 2.41072 13.6798 2.01004 13.0071 1.85402C12.4125 1.71609 11.7941 1.71609 11.1995 1.85402C10.5268 2.01004 9.90146 2.41072 8.6507 3.21208L4.12512 6.11161L4.12512 6.11162C3.04858 6.80135 2.51031 7.14622 2.12015 7.60879C1.77479 8.01824 1.51519 8.49288 1.35674 9.00456C1.17773 9.58263 1.17773 10.2219 1.17773 11.5004V17.3C1.17773 18.4201 1.17773 18.9802 1.39572 19.408C1.58747 19.7843 1.89343 20.0903 2.26975 20.282C2.69758 20.5 3.25763 20.5 4.37773 20.5H5.72948C5.84554 20.5 5.90358 20.5 5.95261 20.4976C6.98002 20.4471 7.8016 19.6255 7.85207 18.5981C7.85448 18.5491 7.85448 18.4911 7.85448 18.375V16.2488C7.85448 13.9023 9.75675 12 12.1033 12C14.4499 12 16.3522 13.9023 16.3522 16.2488V18.375C16.3522 18.4911 16.3522 18.5491 16.3546 18.5981C16.405 19.6255 17.2266 20.4471 18.254 20.4976C18.3031 20.5 18.3611 20.5 18.4772 20.5H19.8289C20.949 20.5 21.5091 20.5 21.9369 20.282C22.3132 20.0903 22.6192 19.7843 22.8109 19.408C23.0289 18.9802 23.0289 18.4201 23.0289 17.3V17.3Z" stroke="#979797" stroke-width="1.8"/>
</svg>
