<svg width="22" height="20" viewBox="0 0 22 20" fill="none" xmlns="http://www.w3.org/2000/svg">
<g clip-path="url(#clip0)">
<path d="M15.3572 10.4998H14.6428C14.5385 10.4998 14.4529 10.5349 14.3863 10.6055C14.3191 10.6756 14.2857 10.7654 14.2857 10.8748V14.6248C14.2857 15.1405 14.111 15.5818 13.7613 15.9491C13.4116 16.3162 12.9912 16.4997 12.5001 16.4997H3.21422C2.72316 16.4997 2.30273 16.3162 1.95299 15.9491C1.60332 15.5819 1.4285 15.1405 1.4285 14.6248V4.87474C1.4285 4.35912 1.60328 3.91783 1.95299 3.55064C2.30273 3.1834 2.72316 2.99988 3.21422 2.99988H11.0713C11.1756 2.99988 11.2612 2.96462 11.3281 2.89439C11.395 2.82408 11.4284 2.73431 11.4284 2.62484V1.87473C11.4284 1.76547 11.395 1.67553 11.3281 1.60535C11.2612 1.53503 11.1756 1.49994 11.0713 1.49994H3.21422C2.32889 1.49994 1.57177 1.83003 0.942954 2.49017C0.31437 3.15027 0 3.94525 0 4.87486V14.625C0 15.5546 0.31437 16.3497 0.942993 17.0096C1.57181 17.6697 2.32893 18 3.21426 18H12.5001C13.3854 18 14.1425 17.6697 14.7713 17.0096C15.4001 16.3497 15.7144 15.5546 15.7144 14.625V10.8751C15.7144 10.7656 15.681 10.6757 15.6138 10.6055C15.5468 10.5349 15.4612 10.4998 15.3572 10.4998Z" fill="#80C41C"/>
<path d="M19.7876 0.222633C19.6462 0.07417 19.4786 0 19.2853 0H13.5711C13.3777 0 13.2102 0.07417 13.0689 0.222633C12.9275 0.371014 12.8567 0.546814 12.8567 0.749951C12.8567 0.953087 12.9275 1.12893 13.0689 1.27739L15.0331 3.33987L7.75642 10.9806C7.68191 11.0587 7.64478 11.1486 7.64478 11.25C7.64478 11.3518 7.68203 11.4416 7.75642 11.5197L9.02875 12.8555C9.10314 12.9336 9.18875 12.9726 9.28546 12.9726C9.38217 12.9726 9.46782 12.9337 9.54217 12.8555L16.8189 5.21489L18.7832 7.27737C18.9245 7.42583 19.092 7.50008 19.2854 7.50008C19.4789 7.50008 19.6464 7.42583 19.7878 7.27737C19.9292 7.12894 19.9998 6.95319 19.9998 6.75005V0.749951C19.9998 0.546691 19.9289 0.371014 19.7876 0.222633Z" fill="#80C41C"/>
</g>
<defs>
<clipPath id="clip0">
<rect width="21.7247" height="20" fill="white" transform="translate(0.275391)"/>
</clipPath>
</defs>
</svg>
