<svg width="15" height="15" viewBox="0 0 15 15" fill="none" xmlns="http://www.w3.org/2000/svg">
<path d="M4.02168 0H0.543425C0.303294 0 0.108643 0.194652 0.108643 0.434783V3.91305C0.108643 4.15318 0.303294 4.34783 0.543425 4.34783H4.02168C4.26182 4.34783 4.45647 4.15318 4.45647 3.91305V0.434783C4.45647 0.194652 4.26182 0 4.02168 0Z" fill="#011D58"/>
<path d="M9.23914 0H5.76089C5.52076 0 5.32611 0.194652 5.32611 0.434783V3.91305C5.32611 4.15318 5.52076 4.34783 5.76089 4.34783H9.23914C9.47927 4.34783 9.67392 4.15318 9.67392 3.91305V0.434783C9.67392 0.194652 9.47927 0 9.23914 0Z" fill="#011D58"/>
<path d="M4.02168 5.21722H0.543425C0.303294 5.21722 0.108643 5.41188 0.108643 5.65201V9.13028C0.108643 9.37041 0.303294 9.56506 0.543425 9.56506H4.02168C4.26182 9.56506 4.45647 9.37041 4.45647 9.13028V5.65201C4.45647 5.41188 4.26182 5.21722 4.02168 5.21722Z" fill="#011D58"/>
<path d="M9.23914 5.21722H5.76089C5.52076 5.21722 5.32611 5.41188 5.32611 5.65201V9.13028C5.32611 9.37041 5.52076 9.56506 5.76089 9.56506H9.23914C9.47927 9.56506 9.67392 9.37041 9.67392 9.13028V5.65201C9.67392 5.41188 9.47927 5.21722 9.23914 5.21722Z" fill="#011D58"/>
<path d="M14.4564 0H10.9781C10.738 0 10.5433 0.194652 10.5433 0.434783V3.91305C10.5433 4.15318 10.738 4.34783 10.9781 4.34783H14.4564C14.6965 4.34783 14.8912 4.15318 14.8912 3.91305V0.434783C14.8912 0.194652 14.6965 0 14.4564 0Z" fill="#011D58"/>
<path d="M14.4564 5.21722H10.9781C10.738 5.21722 10.5433 5.41188 10.5433 5.65201V9.13028C10.5433 9.37041 10.738 9.56506 10.9781 9.56506H14.4564C14.6965 9.56506 14.8912 9.37041 14.8912 9.13028V5.65201C14.8912 5.41188 14.6965 5.21722 14.4564 5.21722Z" fill="#011D58"/>
<path d="M4.02168 10.6522H0.543425C0.303294 10.6522 0.108643 10.8468 0.108643 11.0869V14.5652C0.108643 14.8053 0.303294 15 0.543425 15H4.02168C4.26182 15 4.45647 14.8053 4.45647 14.5652V11.0869C4.45647 10.8468 4.26182 10.6522 4.02168 10.6522Z" fill="#011D58"/>
<path d="M9.23914 10.6522H5.76089C5.52076 10.6522 5.32611 10.8468 5.32611 11.0869V14.5652C5.32611 14.8053 5.52076 15 5.76089 15H9.23914C9.47927 15 9.67392 14.8053 9.67392 14.5652V11.0869C9.67392 10.8468 9.47927 10.6522 9.23914 10.6522Z" fill="#011D58"/>
<path d="M14.4564 10.6522H10.9781C10.738 10.6522 10.5433 10.8468 10.5433 11.0869V14.5652C10.5433 14.8053 10.738 15 10.9781 15H14.4564C14.6965 15 14.8912 14.8053 14.8912 14.5652V11.0869C14.8912 10.8468 14.6965 10.6522 14.4564 10.6522Z" fill="#011D58"/>
</svg>
