<svg width="45" height="45" viewBox="0 0 45 45" fill="none" xmlns="http://www.w3.org/2000/svg">
<circle cx="22.5" cy="22.5" r="22.5" fill="#03A9F4" fill-opacity="0.14"/>
<circle cx="22.5" cy="22.5" r="15" fill="#03A9F4" stroke="white"/>
<path d="M33 16.8942C32.2191 17.2154 31.3869 17.4283 30.5194 17.5317C31.4119 17.032 32.0931 16.2468 32.4133 15.3003C31.5812 15.7655 30.6624 16.0942 29.6833 16.2775C28.8932 15.4886 27.7671 15 26.5386 15C24.1551 15 22.2362 16.8142 22.2362 19.0382C22.2362 19.3582 22.2651 19.6658 22.3359 19.9588C18.7568 19.7951 15.5897 18.1865 13.4621 15.736C13.0907 16.3403 12.8728 17.032 12.8728 17.7766C12.8728 19.1748 13.6406 20.4142 14.7851 21.1317C14.0934 21.1194 13.4149 20.9311 12.84 20.6345C12.84 20.6468 12.84 20.6628 12.84 20.6788C12.84 22.6406 14.3323 24.2702 16.2892 24.6455C15.9388 24.7354 15.5569 24.7785 15.1605 24.7785C14.8849 24.7785 14.6066 24.7637 14.3454 24.7095C14.9032 26.3083 16.4861 27.4837 18.3683 27.5218C16.9035 28.5963 15.0437 29.2437 13.0303 29.2437C12.6773 29.2437 12.3386 29.2289 12 29.1883C13.9071 30.3415 16.1672 31 18.6045 31C26.5267 31 30.858 24.8462 30.858 19.512C30.858 19.3335 30.8514 19.1612 30.8422 18.9902C31.6967 18.4215 32.4146 17.7114 33 16.8942Z" fill="white"/>
</svg>
